<?xml version="1.0" encoding="UTF-8"?>
<svg id="Layer_1" data-name="Layer 1" xmlns="http://www.w3.org/2000/svg" xmlns:xlink="http://www.w3.org/1999/xlink" viewBox="0 0 2000 2000">
  <defs>
    <style>
      .cls-1 {
        fill: none;
      }

      .cls-2 {
        fill: url(#New_Pattern_7);
      }

      .cls-3 {
        fill: #f9f3eb;
      }
    </style>
    <pattern id="New_Pattern_7" data-name="New Pattern 7" x="0" y="0" width="45" height="41.88" patternTransform="translate(10073.52 12455.07) scale(1.74)" patternUnits="userSpaceOnUse" viewBox="0 0 45 41.88">
      <g>
        <rect class="cls-1" width="45" height="41.88"/>
        <path class="cls-3" d="M18.45,3.07v14.34H2.23V3.07h16.22ZM10.72,12.39c2.31-.51,4.63-1.01,6.94-1.52v-1.24c-2.31-.51-4.63-1.03-6.94-1.54v4.3ZM9.95,13.16c-2.31-.52-4.63-1.05-6.94-1.57,0,.52,0,1.05,0,1.57l6.94,3.48v-3.48ZM9.95,8.09c-2.31.51-4.63,1.03-6.94,1.54v1.24c2.31.51,4.63,1.01,6.94,1.52v-4.3ZM9.95,3.85l-6.94,3.48c0,.52,0,1.05,0,1.57,2.31-.52,4.63-1.05,6.94-1.57v-3.48ZM17.67,11.59c-2.31.52-4.63,1.05-6.94,1.57v3.48l6.94-3.48c0-.52,0-1.05,0-1.57ZM17.67,8.9c0-.52,0-1.05,0-1.57l-6.94-3.48v3.48c2.31.52,4.63,1.05,6.94,1.57Z"/>
        <path class="cls-3" d="M42.77,24.31v14.34h-16.22v-14.34h16.22ZM35.05,33.63c2.31-.51,4.63-1.01,6.94-1.52v-1.24c-2.31-.51-4.63-1.03-6.94-1.54v4.3ZM34.27,34.4c-2.31-.52-4.63-1.05-6.94-1.57,0,.52,0,1.05,0,1.57l6.94,3.48v-3.48ZM34.27,29.34c-2.31.51-4.63,1.03-6.94,1.54v1.24c2.31.51,4.63,1.01,6.94,1.52v-4.3ZM34.27,25.09l-6.94,3.48c0,.52,0,1.05,0,1.57,2.31-.52,4.63-1.05,6.94-1.57v-3.48ZM41.99,32.83c-2.31.52-4.63,1.05-6.94,1.57v3.48l6.94-3.48c0-.52,0-1.05,0-1.57ZM41.99,30.14c0-.52,0-1.05,0-1.57l-6.94-3.48v3.48c2.31.52,4.63,1.05,6.94,1.57Z"/>
        <rect class="cls-3" x="30.61" y="6.66" width="8.11" height="7.17"/>
        <rect class="cls-3" x="6.28" y="27.9" width="8.11" height="7.17"/>
      </g>
    </pattern>
  </defs>
  <rect class="cls-2" x="0" width="2000" height="2000"/>
</svg>